<svg width="71" height="67" viewBox="0 0 71 67" fill="none" xmlns="http://www.w3.org/2000/svg">
<mask id="mask0_1006_26" style="mask-type:alpha" maskUnits="userSpaceOnUse" x="0" y="0" width="71" height="67">
<ellipse cx="35.5" cy="33.5" rx="35.5" ry="33.5" fill="white"/>
</mask>
<g mask="url(#mask0_1006_26)">
</g>
<mask id="mask1_1006_26" style="mask-type:alpha" maskUnits="userSpaceOnUse" x="0" y="0" width="71" height="67">
<ellipse cx="35.5" cy="33.5" rx="35.5" ry="33.5" fill="white"/>
</mask>
<g mask="url(#mask1_1006_26)">
<ellipse cx="35.5" cy="33.5" rx="34.5" ry="33.5" fill="#E1E1E1"/>
<path d="M9.95631 67.7487L9.65571 54.1895L14.5747 53.299L14.1466 33.9912L9.19304 33.3196L8.89245 19.7604L37.0418 19.1364C40.4784 19.0602 43.6999 19.1451 46.706 19.391C49.7118 19.6161 52.3504 20.2036 54.6221 21.1535C56.914 22.0821 58.7177 23.5425 60.033 25.5346C61.3478 27.506 62.0431 30.1996 62.1189 33.6154C62.1747 36.1356 61.8143 38.2066 61.0375 39.8284C60.2812 41.4289 59.1952 42.7345 57.7798 43.7453C56.3852 44.7556 54.7589 45.6565 52.901 46.4479C54.562 48.995 56.2601 51.3329 57.9952 53.4617C59.7299 55.5696 61.29 57.3271 62.6757 58.7342L62.8496 66.576L42.9794 67.0166C39.6468 61.4432 37.1873 55.7776 35.6009 50.0197L34.5074 50.0439L34.8877 67.1959L9.95631 67.7487ZM34.3031 40.8274C35.9069 40.7919 37.2998 40.6464 38.482 40.3909C39.6845 40.1142 40.6104 39.5832 41.2598 38.7977C41.9088 37.9915 42.2155 36.7865 42.1799 35.1827C42.1444 33.5789 41.7848 32.3991 41.1012 31.6432C40.4172 30.8665 39.4684 30.3666 38.2548 30.1435C37.0616 29.899 35.6631 29.7946 34.0593 29.8301L34.3031 40.8274Z" fill="#1E1E1E"/>
</g>
</svg>
