<svg width="71" height="67" viewBox="0 0 71 67" fill="none" xmlns="http://www.w3.org/2000/svg">
<mask id="mask0_1006_26" style="mask-type:alpha" maskUnits="userSpaceOnUse" x="0" y="0" width="71" height="67">
<ellipse cx="35.5" cy="33.5" rx="35.5" ry="33.5" fill="white"/>
</mask>
<g mask="url(#mask0_1006_26)">
<path d="M35.5 0C49.2045 0 61.0425 7.75916 66.6094 19H59.7031L53.4688 32.1719V19H36.5469V28.2344L39.3594 28.7734V42.1094L36.5469 42.6484V52H53.4688V38.1719L59.7031 52H64.2646C58.0861 61.0397 47.5105 67 35.5 67C23.7112 67 13.3049 61.2574 7.08203 52.4971L13.9209 52.3457L13.6357 39.4814L14.4561 39.4639C15.6458 43.7822 17.4908 48.0311 19.9902 52.2109L34.8926 51.8809L34.7627 45.999C33.7234 44.9437 32.5529 43.6258 31.252 42.0449C29.9506 40.4484 28.6774 38.6945 27.4316 36.7842C28.8249 36.1907 30.045 35.5155 31.0908 34.7578C32.1523 33.9998 32.9669 33.0206 33.5342 31.8203C34.1167 30.604 34.3866 29.0503 34.3447 27.1602C34.2879 24.5984 33.7664 22.5781 32.7803 21.0996C31.7938 19.6055 30.4406 18.5099 28.7217 17.8135C27.0181 17.1012 25.0392 16.661 22.7852 16.4922C20.5306 16.3077 18.1145 16.2436 15.5371 16.3008L5.75781 16.5176C11.7565 6.63335 22.8297 0 35.5 0ZM69.8457 30.3398C69.946 31.3802 70 32.4342 70 33.5C70 35.5044 69.8173 37.4674 69.4697 39.375C68.505 37.919 67.5613 36.4638 66.6406 35.0078C67.6273 33.3994 68.6953 31.8431 69.8457 30.3398ZM13.2998 24.3213C14.5025 24.2946 15.5514 24.3733 16.4463 24.5566C17.3565 24.724 18.068 25.0991 18.5811 25.6816C19.0937 26.2485 19.364 27.1331 19.3906 28.3359C19.4173 29.5387 19.1869 30.4422 18.7002 31.0469C18.2132 31.6359 17.519 32.0346 16.6172 32.2422C15.7306 32.4338 14.6853 32.5427 13.4824 32.5693L13.2998 24.3213Z" fill="white"/>
</g>
</svg>
